<mxfile host="Electron" agent="Mozilla/5.0 (Macintosh; Intel Mac OS X 10_15_7) AppleWebKit/537.36 (KHTML, like Gecko) draw.io/24.7.8 Chrome/128.0.6613.36 Electron/32.0.1 Safari/537.36" version="24.7.8">
  <diagram name="ページ1" id="0lzz0qcHJcDkH_nxHKsg">
    <mxGraphModel dx="2172" dy="1305" grid="1" gridSize="10" guides="1" tooltips="1" connect="1" arrows="1" fold="1" page="1" pageScale="1" pageWidth="827" pageHeight="1169" math="0" shadow="0">
      <root>
        <mxCell id="0" />
        <mxCell id="1" parent="0" />
        <mxCell id="LIO6guwHClqdhaRPujZN-2" value="Public subnet" style="points=[[0,0],[0.25,0],[0.5,0],[0.75,0],[1,0],[1,0.25],[1,0.5],[1,0.75],[1,1],[0.75,1],[0.5,1],[0.25,1],[0,1],[0,0.75],[0,0.5],[0,0.25]];outlineConnect=0;gradientColor=none;html=1;whiteSpace=wrap;fontSize=12;fontStyle=0;container=1;pointerEvents=0;collapsible=0;recursiveResize=0;shape=mxgraph.aws4.group;grIcon=mxgraph.aws4.group_security_group;grStroke=0;strokeColor=#7AA116;fillColor=#F2F6E8;verticalAlign=top;align=left;spacingLeft=30;fontColor=#248814;dashed=0;" parent="1" vertex="1">
          <mxGeometry x="-60" y="360" width="440" height="210" as="geometry" />
        </mxCell>
        <mxCell id="8wl--d6G9Zwy83Y7K9Jy-10" value="" style="edgeStyle=orthogonalEdgeStyle;rounded=0;orthogonalLoop=1;jettySize=auto;html=1;endArrow=oval;endFill=0;startArrow=oval;startFill=0;dashed=1;dashPattern=1 1;" parent="LIO6guwHClqdhaRPujZN-2" target="8wl--d6G9Zwy83Y7K9Jy-4" edge="1">
          <mxGeometry relative="1" as="geometry">
            <Array as="points">
              <mxPoint x="280" y="80" />
              <mxPoint x="220" y="80" />
            </Array>
            <mxPoint x="260" y="80" as="sourcePoint" />
          </mxGeometry>
        </mxCell>
        <mxCell id="LIO6guwHClqdhaRPujZN-4" value="VPC" style="points=[[0,0],[0.25,0],[0.5,0],[0.75,0],[1,0],[1,0.25],[1,0.5],[1,0.75],[1,1],[0.75,1],[0.5,1],[0.25,1],[0,1],[0,0.75],[0,0.5],[0,0.25]];outlineConnect=0;gradientColor=none;html=1;whiteSpace=wrap;fontSize=12;fontStyle=0;container=0;pointerEvents=0;collapsible=0;recursiveResize=0;shape=mxgraph.aws4.group;grIcon=mxgraph.aws4.group_vpc2;strokeColor=#8C4FFF;fillColor=none;verticalAlign=top;align=left;spacingLeft=30;fontColor=#AAB7B8;dashed=0;" parent="1" vertex="1">
          <mxGeometry x="-110" y="310" width="540" height="290" as="geometry" />
        </mxCell>
        <mxCell id="8wl--d6G9Zwy83Y7K9Jy-13" value="" style="group" parent="1" vertex="1" connectable="0">
          <mxGeometry x="-290" y="421" width="142" height="118" as="geometry" />
        </mxCell>
        <mxCell id="8wl--d6G9Zwy83Y7K9Jy-12" value="" style="sketch=0;outlineConnect=0;fontColor=#232F3E;gradientColor=none;fillColor=#8C4FFF;strokeColor=none;dashed=0;verticalLabelPosition=bottom;verticalAlign=top;align=center;html=1;fontSize=12;fontStyle=0;aspect=fixed;pointerEvents=1;shape=mxgraph.aws4.endpoint;" parent="8wl--d6G9Zwy83Y7K9Jy-13" vertex="1">
          <mxGeometry x="32" y="4" width="78" height="78" as="geometry" />
        </mxCell>
        <mxCell id="8wl--d6G9Zwy83Y7K9Jy-2" value="EC2 Instance Connect Endpoint Service" style="text;html=1;align=center;verticalAlign=middle;whiteSpace=wrap;rounded=0;" parent="8wl--d6G9Zwy83Y7K9Jy-13" vertex="1">
          <mxGeometry y="88" width="142" height="30" as="geometry" />
        </mxCell>
        <mxCell id="8wl--d6G9Zwy83Y7K9Jy-27" style="edgeStyle=orthogonalEdgeStyle;rounded=0;orthogonalLoop=1;jettySize=auto;html=1;" parent="1" source="8wl--d6G9Zwy83Y7K9Jy-26" edge="1">
          <mxGeometry relative="1" as="geometry">
            <mxPoint x="-260" y="464" as="targetPoint" />
          </mxGeometry>
        </mxCell>
        <mxCell id="8wl--d6G9Zwy83Y7K9Jy-26" value="" style="sketch=0;outlineConnect=0;fontColor=#232F3E;gradientColor=none;fillColor=#232F3D;strokeColor=none;dashed=0;verticalLabelPosition=bottom;verticalAlign=top;align=center;html=1;fontSize=12;fontStyle=0;aspect=fixed;pointerEvents=1;shape=mxgraph.aws4.user;" parent="1" vertex="1">
          <mxGeometry x="-480" y="425" width="78" height="78" as="geometry" />
        </mxCell>
        <mxCell id="8wl--d6G9Zwy83Y7K9Jy-29" value="AWS Cloud" style="points=[[0,0],[0.25,0],[0.5,0],[0.75,0],[1,0],[1,0.25],[1,0.5],[1,0.75],[1,1],[0.75,1],[0.5,1],[0.25,1],[0,1],[0,0.75],[0,0.5],[0,0.25]];outlineConnect=0;gradientColor=none;html=1;whiteSpace=wrap;fontSize=12;fontStyle=0;container=1;pointerEvents=0;collapsible=0;recursiveResize=0;shape=mxgraph.aws4.group;grIcon=mxgraph.aws4.group_aws_cloud;strokeColor=#232F3E;fillColor=none;verticalAlign=top;align=left;spacingLeft=30;fontColor=#232F3E;dashed=0;" parent="1" vertex="1">
          <mxGeometry x="-320" y="260" width="790" height="360" as="geometry" />
        </mxCell>
        <mxCell id="LIO6guwHClqdhaRPujZN-8" value="" style="sketch=0;outlineConnect=0;fontColor=#232F3E;gradientColor=none;fillColor=#8C4FFF;strokeColor=none;dashed=0;verticalLabelPosition=bottom;verticalAlign=top;align=center;html=1;fontSize=12;fontStyle=0;aspect=fixed;pointerEvents=1;shape=mxgraph.aws4.internet_gateway;" parent="8wl--d6G9Zwy83Y7K9Jy-29" vertex="1">
          <mxGeometry x="524" y="10" width="78" height="78" as="geometry" />
        </mxCell>
        <mxCell id="_kKeu2DVVQN2PKiD8BDX-1" value="Internet Gateway" style="text;html=1;align=center;verticalAlign=middle;whiteSpace=wrap;rounded=0;" parent="8wl--d6G9Zwy83Y7K9Jy-29" vertex="1">
          <mxGeometry x="590" y="70" width="60" height="30" as="geometry" />
        </mxCell>
        <mxCell id="8wl--d6G9Zwy83Y7K9Jy-9" value="" style="group" parent="8wl--d6G9Zwy83Y7K9Jy-29" vertex="1" connectable="0">
          <mxGeometry x="440" y="150" width="98" height="50" as="geometry" />
        </mxCell>
        <mxCell id="8wl--d6G9Zwy83Y7K9Jy-4" value="" style="sketch=0;outlineConnect=0;fontColor=#232F3E;gradientColor=none;fillColor=#ED7100;strokeColor=none;dashed=0;verticalLabelPosition=bottom;verticalAlign=top;align=center;html=1;fontSize=12;fontStyle=0;aspect=fixed;pointerEvents=1;shape=mxgraph.aws4.elastic_ip_address;" parent="8wl--d6G9Zwy83Y7K9Jy-9" vertex="1">
          <mxGeometry x="25" width="48" height="20" as="geometry" />
        </mxCell>
        <mxCell id="8wl--d6G9Zwy83Y7K9Jy-7" value="Elastic IP" style="text;html=1;align=center;verticalAlign=middle;whiteSpace=wrap;rounded=0;" parent="8wl--d6G9Zwy83Y7K9Jy-9" vertex="1">
          <mxGeometry y="20" width="98" height="30" as="geometry" />
        </mxCell>
        <mxCell id="8wl--d6G9Zwy83Y7K9Jy-24" style="edgeStyle=orthogonalEdgeStyle;rounded=0;orthogonalLoop=1;jettySize=auto;html=1;exitX=0.5;exitY=0;exitDx=0;exitDy=0;exitPerimeter=0;" parent="1" source="LIO6guwHClqdhaRPujZN-13" target="LIO6guwHClqdhaRPujZN-8" edge="1">
          <mxGeometry relative="1" as="geometry">
            <mxPoint x="243" y="311" as="targetPoint" />
          </mxGeometry>
        </mxCell>
        <mxCell id="8wl--d6G9Zwy83Y7K9Jy-22" style="edgeStyle=orthogonalEdgeStyle;rounded=0;orthogonalLoop=1;jettySize=auto;html=1;" parent="1" source="8wl--d6G9Zwy83Y7K9Jy-12" target="8wl--d6G9Zwy83Y7K9Jy-15" edge="1">
          <mxGeometry relative="1" as="geometry" />
        </mxCell>
        <mxCell id="8wl--d6G9Zwy83Y7K9Jy-23" style="edgeStyle=orthogonalEdgeStyle;rounded=0;orthogonalLoop=1;jettySize=auto;html=1;" parent="1" source="8wl--d6G9Zwy83Y7K9Jy-15" target="LIO6guwHClqdhaRPujZN-13" edge="1">
          <mxGeometry relative="1" as="geometry" />
        </mxCell>
        <mxCell id="8wl--d6G9Zwy83Y7K9Jy-16" value="" style="group" parent="1" vertex="1" connectable="0">
          <mxGeometry x="200" y="421" width="88" height="112" as="geometry" />
        </mxCell>
        <mxCell id="LIO6guwHClqdhaRPujZN-13" value="" style="sketch=0;points=[[0,0,0],[0.25,0,0],[0.5,0,0],[0.75,0,0],[1,0,0],[0,1,0],[0.25,1,0],[0.5,1,0],[0.75,1,0],[1,1,0],[0,0.25,0],[0,0.5,0],[0,0.75,0],[1,0.25,0],[1,0.5,0],[1,0.75,0]];outlineConnect=0;fontColor=#232F3E;fillColor=#ED7100;strokeColor=#ffffff;dashed=0;verticalLabelPosition=bottom;verticalAlign=top;align=center;html=1;fontSize=12;fontStyle=0;aspect=fixed;shape=mxgraph.aws4.resourceIcon;resIcon=mxgraph.aws4.ec2;" parent="8wl--d6G9Zwy83Y7K9Jy-16" vertex="1">
          <mxGeometry x="4" y="4" width="78" height="78" as="geometry" />
        </mxCell>
        <mxCell id="8wl--d6G9Zwy83Y7K9Jy-11" value="EC2" style="text;html=1;align=center;verticalAlign=middle;whiteSpace=wrap;rounded=0;" parent="8wl--d6G9Zwy83Y7K9Jy-16" vertex="1">
          <mxGeometry y="82" width="88" height="30" as="geometry" />
        </mxCell>
        <mxCell id="V7fx_z5avPRs1USmEm9l-2" value="" style="group" parent="1" vertex="1" connectable="0">
          <mxGeometry x="-40" y="421" width="142" height="112" as="geometry" />
        </mxCell>
        <mxCell id="8wl--d6G9Zwy83Y7K9Jy-15" value="" style="sketch=0;outlineConnect=0;fontColor=#232F3E;gradientColor=none;fillColor=#8C4FFF;strokeColor=none;dashed=0;verticalLabelPosition=bottom;verticalAlign=top;align=center;html=1;fontSize=12;fontStyle=0;aspect=fixed;pointerEvents=1;shape=mxgraph.aws4.elastic_network_interface;" parent="V7fx_z5avPRs1USmEm9l-2" vertex="1">
          <mxGeometry x="32" y="4" width="78" height="78" as="geometry" />
        </mxCell>
        <mxCell id="8wl--d6G9Zwy83Y7K9Jy-28" value="EC2 Instance Connect Endpoint" style="text;html=1;align=center;verticalAlign=middle;whiteSpace=wrap;rounded=0;" parent="V7fx_z5avPRs1USmEm9l-2" vertex="1">
          <mxGeometry y="88" width="142" height="30" as="geometry" />
        </mxCell>
        <mxCell id="V7fx_z5avPRs1USmEm9l-1" value="Security group" style="fillColor=none;strokeColor=#DD3522;verticalAlign=top;fontStyle=0;fontColor=#DD3522;whiteSpace=wrap;html=1;" parent="1" vertex="1">
          <mxGeometry x="-44" y="394" width="150" height="156" as="geometry" />
        </mxCell>
        <mxCell id="V7fx_z5avPRs1USmEm9l-6" value="Security group" style="fillColor=none;strokeColor=#DD3522;verticalAlign=top;fontStyle=0;fontColor=#DD3522;whiteSpace=wrap;html=1;" parent="1" vertex="1">
          <mxGeometry x="140" y="394" width="210" height="156" as="geometry" />
        </mxCell>
      </root>
    </mxGraphModel>
  </diagram>
</mxfile>
